<svg width="320" height="160" viewBox="0 0 320 160" fill="none" xmlns="http://www.w3.org/2000/svg">
  <!-- Building 1 (tallest, center) -->
  <rect x="128" y="20" width="44" height="135" rx="3" fill="#F59E0B" opacity="0.35"/>
  <!-- windows b1 -->
  <rect x="136" y="30" width="10" height="8" rx="1" fill="white" opacity="0.4"/>
  <rect x="152" y="30" width="10" height="8" rx="1" fill="white" opacity="0.6"/>
  <rect x="136" y="45" width="10" height="8" rx="1" fill="white" opacity="0.6"/>
  <rect x="152" y="45" width="10" height="8" rx="1" fill="white" opacity="0.3"/>
  <rect x="136" y="60" width="10" height="8" rx="1" fill="white" opacity="0.4"/>
  <rect x="152" y="60" width="10" height="8" rx="1" fill="white" opacity="0.5"/>
  <rect x="136" y="75" width="10" height="8" rx="1" fill="white" opacity="0.2"/>
  <rect x="152" y="75" width="10" height="8" rx="1" fill="white" opacity="0.4"/>
  <!-- rooftop detail -->
  <rect x="140" y="14" width="20" height="8" rx="2" fill="#F59E0B" opacity="0.5"/>
  <rect x="148" y="8" width="4" height="8" rx="1" fill="#F59E0B" opacity="0.4"/>

  <!-- Building 2 (left) -->
  <rect x="70" y="50" width="52" height="105" rx="3" fill="#F59E0B" opacity="0.2"/>
  <rect x="78" y="60" width="10" height="8" rx="1" fill="white" opacity="0.3"/>
  <rect x="94" y="60" width="10" height="8" rx="1" fill="white" opacity="0.4"/>
  <rect x="78" y="76" width="10" height="8" rx="1" fill="white" opacity="0.4"/>
  <rect x="94" y="76" width="10" height="8" rx="1" fill="white" opacity="0.2"/>
  <rect x="78" y="92" width="10" height="8" rx="1" fill="white" opacity="0.2"/>
  <rect x="94" y="92" width="10" height="8" rx="1" fill="white" opacity="0.35"/>
  <rect x="84" y="43" width="32" height="9" rx="2" fill="#F59E0B" opacity="0.3"/>

  <!-- Building 3 (right) -->
  <rect x="198" y="40" width="52" height="115" rx="3" fill="#F59E0B" opacity="0.25"/>
  <rect x="206" y="52" width="10" height="8" rx="1" fill="white" opacity="0.4"/>
  <rect x="222" y="52" width="10" height="8" rx="1" fill="white" opacity="0.3"/>
  <rect x="206" y="68" width="10" height="8" rx="1" fill="white" opacity="0.2"/>
  <rect x="222" y="68" width="10" height="8" rx="1" fill="white" opacity="0.4"/>
  <rect x="206" y="84" width="10" height="8" rx="1" fill="white" opacity="0.35"/>
  <rect x="222" y="84" width="10" height="8" rx="1" fill="white" opacity="0.2"/>
  <rect x="204" y="33" width="30" height="9" rx="2" fill="#F59E0B" opacity="0.3"/>

  <!-- Building 4 (far left, short) -->
  <rect x="20" y="75" width="42" height="80" rx="3" fill="#F59E0B" opacity="0.15"/>
  <rect x="28" y="85" width="8" height="7" rx="1" fill="white" opacity="0.25"/>
  <rect x="40" y="85" width="8" height="7" rx="1" fill="white" opacity="0.35"/>
  <rect x="28" y="99" width="8" height="7" rx="1" fill="white" opacity="0.2"/>
  <rect x="40" y="99" width="8" height="7" rx="1" fill="white" opacity="0.3"/>

  <!-- Building 5 (far right, short) -->
  <rect x="258" y="68" width="42" height="87" rx="3" fill="#F59E0B" opacity="0.15"/>
  <rect x="266" y="78" width="8" height="7" rx="1" fill="white" opacity="0.3"/>
  <rect x="278" y="78" width="8" height="7" rx="1" fill="white" opacity="0.2"/>
  <rect x="266" y="93" width="8" height="7" rx="1" fill="white" opacity="0.2"/>
  <rect x="278" y="93" width="8" height="7" rx="1" fill="white" opacity="0.3"/>

  <!-- Ground -->
  <rect x="0" y="153" width="320" height="7" rx="3" fill="#F59E0B" opacity="0.12"/>

  <!-- Tax label -->
  <g transform="translate(220, 12)">
    <rect x="0" y="0" width="80" height="24" rx="6" fill="#F59E0B" opacity="0.9"/>
    <text x="40" y="10" textAnchor="middle" fill="#0B1623" fontSize="8" fontFamily="sans-serif" opacity="0.7">1주택 공제</text>
    <text x="40" y="21" textAnchor="middle" fill="#0B1623" fontSize="10" fontWeight="800" fontFamily="sans-serif">12억 원</text>
  </g>
</svg>
